<svg width="17" height="16" viewBox="0 0 17 16" fill="none" xmlns="http://www.w3.org/2000/svg">
<path d="M13.3245 8.42448L9.7245 12.0245C9.61178 12.1372 9.45891 12.2005 9.2995 12.2005C9.14009 12.2005 8.98722 12.1372 8.8745 12.0245C8.76178 11.9118 8.69846 11.7589 8.69846 11.5995C8.69846 11.4401 8.76178 11.2872 8.8745 11.1745L11.45 8.59998H4.1C3.94087 8.59998 3.78826 8.53677 3.67574 8.42425C3.56321 8.31173 3.5 8.15911 3.5 7.99998C3.5 7.84085 3.56321 7.68824 3.67574 7.57572C3.78826 7.4632 3.94087 7.39998 4.1 7.39998H11.45L8.8755 4.82398C8.76278 4.71127 8.69946 4.55839 8.69946 4.39898C8.69946 4.23958 8.76278 4.0867 8.8755 3.97398C8.98822 3.86127 9.14109 3.79794 9.3005 3.79794C9.45991 3.79794 9.61278 3.86127 9.7255 3.97398L13.3255 7.57398C13.3814 7.6298 13.4258 7.69612 13.4561 7.76913C13.4863 7.84215 13.5018 7.92041 13.5017 7.99944C13.5016 8.07847 13.4859 8.1567 13.4555 8.22964C13.4251 8.30258 13.3806 8.3688 13.3245 8.42448Z" fill="white"/>
</svg>
